<svg id="Ebene_4" data-name="Ebene 4" xmlns="http://www.w3.org/2000/svg" width="111.55mm" height="272.67mm" viewBox="0 0 316.2 772.92"><defs><style>.cls-1{fill:#fff;}.cls-1,.cls-2,.cls-3{stroke:#1d1d1b;}.cls-1,.cls-2,.cls-3,.cls-4{stroke-miterlimit:10;stroke-width:30px;}.cls-2{fill:#1d1d1b;}.cls-3,.cls-4{fill:#bbf1fa;}.cls-4{stroke:#f6f6f6;}</style></defs><path class="cls-1" d="M556.65,248.71c-26.46.15-46.49,15.12-59,32.31C470.9,317.69,414.34,401.76,409,460l7,395.07,58.12,3.82c53,3.48,105.22,14.51,155.5,1.05l54.58-10,10.9-392.15a103.87,103.87,0,0,0-.69-16.06c-10.07-80.49-34.31-102.88-82.14-168.13-11.35-15.49-32.63-25.05-55.61-24.91Z" transform="translate(-393.94 -233.71)"/><path class="cls-2" d="M527.5,899.85c-5.54,1.68-29.82,9.74-44.6,35.21-2.08,3.58-19.53,34.48-8.22,56.34l140.84-3.53c9-21.07-9.39-51.18-27-66.9C563.69,898.8,534,899.54,527.5,899.85Z" transform="translate(-393.94 -233.71)"/><circle class="cls-3" cx="158.2" cy="237.74" r="58.69"/><path class="cls-4" d="M555.23,439.54A34.83,34.83,0,0,1,580.75,460" transform="translate(-393.94 -233.71)"/></svg>